<svg width="15" height="15" viewBox="0 0 15 15" fill="none" xmlns="http://www.w3.org/2000/svg">
<g clip-path="url(#clip0_1_333)">
<path fill-rule="evenodd" clip-rule="evenodd" d="M9.375 14.375L3.55687 10.625H0V4.375H3.55687L9.375 0.625V14.375ZM3.75 4.99438V10.0056L8.75 13.2288V1.77125L3.75 4.99438ZM12.6425 2.3575C14.0969 3.60063 15 5.44625 15 7.50063C15 9.55563 14.0969 11.4013 12.6437 12.6438L12.2012 12.2013C13.5362 11.0819 14.375 9.38813 14.375 7.5C14.375 5.61188 13.5362 3.91813 12.2012 2.79875L12.6425 2.3575ZM10.8119 4.18813C11.7625 4.97375 12.3594 6.1675 12.3594 7.5C12.3594 8.8325 11.7625 10.0263 10.8119 10.8119L10.3706 10.3706C11.2025 9.70625 11.7344 8.665 11.7344 7.50125C11.7344 6.33688 11.2025 5.29563 10.3694 4.63063L10.8119 4.18813ZM3.125 5H0.625V10H3.125V5Z" fill="white"/>
</g>
<defs>
<clipPath id="clip0_1_333">
<rect width="15" height="15" fill="white"/>
</clipPath>
</defs>
</svg>
