<svg width="9" height="7" viewBox="0 0 9 7" fill="none" xmlns="http://www.w3.org/2000/svg">
<path fill-rule="evenodd" clip-rule="evenodd" d="M8.87143 1.02857C8.94306 0.933063 8.98668 0.819494 8.9974 0.70059C9.00813 0.581686 8.98552 0.462145 8.93213 0.355363C8.87874 0.248581 8.79667 0.158776 8.69511 0.0960106C8.59356 0.0332455 8.47653 3.42421e-07 8.35714 3.37202e-07L0.642858 0C0.523472 -5.21852e-09 0.406443 0.0332451 0.304887 0.0960102C0.203331 0.158775 0.121261 0.24858 0.0678696 0.355363C0.0144785 0.462145 -0.00812374 0.581686 0.00259781 0.700589C0.0133194 0.819493 0.056941 0.933063 0.128573 1.02857L3.98571 6.17143C4.0456 6.25127 4.12324 6.31607 4.21251 6.3607C4.30177 6.40534 4.4002 6.42857 4.5 6.42857C4.5998 6.42857 4.69823 6.40534 4.78749 6.3607C4.87676 6.31607 4.95441 6.25127 5.01429 6.17143L8.87143 1.02857Z" fill="#D9D9D9"/>
</svg>
