<svg width="9" height="9" viewBox="0 0 9 9" fill="none" xmlns="http://www.w3.org/2000/svg">
<g clip-path="url(#clip0_589_624)">
<path d="M5.14286 0.5625C5.14286 0.251367 4.85558 0 4.5 0C4.14442 0 3.85714 0.251367 3.85714 0.5625V4.26621L3.02545 3.53848C2.77433 3.31875 2.36652 3.31875 2.1154 3.53848C1.86429 3.7582 1.86429 4.11504 2.1154 4.33477L4.04397 6.02227C4.29509 6.24199 4.7029 6.24199 4.95402 6.02227L6.88259 4.33477C7.13371 4.11504 7.13371 3.7582 6.88259 3.53848C6.63147 3.31875 6.22366 3.31875 5.97254 3.53848L5.14286 4.26621V0.5625ZM1.28571 5.625C0.576563 5.625 0 6.12949 0 6.75V7.3125C0 7.93301 0.576563 8.4375 1.28571 8.4375H7.71429C8.42344 8.4375 9 7.93301 9 7.3125V6.75C9 6.12949 8.42344 5.625 7.71429 5.625H6.7721L5.63504 6.61992C5.00826 7.16836 3.98973 7.16836 3.36295 6.61992L2.2279 5.625H1.28571ZM7.39286 6.60938C7.45617 6.60938 7.51887 6.62029 7.57737 6.64149C7.63586 6.66269 7.68901 6.69376 7.73378 6.73294C7.77855 6.77211 7.81407 6.81862 7.8383 6.86981C7.86253 6.92099 7.875 6.97585 7.875 7.03125C7.875 7.08665 7.86253 7.14151 7.8383 7.19269C7.81407 7.24388 7.77855 7.29039 7.73378 7.32956C7.68901 7.36874 7.63586 7.39981 7.57737 7.42101C7.51887 7.44221 7.45617 7.45312 7.39286 7.45312C7.32954 7.45312 7.26684 7.44221 7.20835 7.42101C7.14985 7.39981 7.0967 7.36874 7.05193 7.32956C7.00716 7.29039 6.97165 7.24388 6.94742 7.19269C6.92319 7.14151 6.91071 7.08665 6.91071 7.03125C6.91071 6.97585 6.92319 6.92099 6.94742 6.86981C6.97165 6.81862 7.00716 6.77211 7.05193 6.73294C7.0967 6.69376 7.14985 6.66269 7.20835 6.64149C7.26684 6.62029 7.32954 6.60938 7.39286 6.60938Z" fill="#D9D9D9"/>
</g>
<defs>
<clipPath id="clip0_589_624">
<rect width="9" height="9" fill="white"/>
</clipPath>
</defs>
</svg>
