<svg xmlns="http://www.w3.org/2000/svg" viewBox="0 0 14.64 13.86"><defs><style>.cls-1{fill:#0fff75;}.cls-2{fill:#e6e7e8;}</style></defs><g id="Layer_2" data-name="Layer 2"><g id="Layer_1-2" data-name="Layer 1"><path class="cls-1" d="M0,13.86V1.39H5.15a5,5,0,0,1,3.4,1.09,3.7,3.7,0,0,1,1.26,3,3.89,3.89,0,0,1-.5,2A3.68,3.68,0,0,1,7.92,8.78l2.75,5.08H7.07L4.88,9.5H3.29v4.36Zm3.29-6.7H4.77A1.62,1.62,0,0,0,6,6.73a1.64,1.64,0,0,0,.45-1.24c0-1.09-.57-1.64-1.71-1.64H3.29Z"/><path class="cls-2" d="M12.75,3.42A2,2,0,0,1,11.37,3a1.59,1.59,0,0,1-.51-1.24A1.59,1.59,0,0,1,11.37.47,2,2,0,0,1,12.75,0a2,2,0,0,1,1.37.47,1.57,1.57,0,0,1,.52,1.24A1.57,1.57,0,0,1,14.12,3,2,2,0,0,1,12.75,3.42Z"/></g></g></svg>