<svg width="71" height="14" viewBox="0 0 71 14" fill="none" xmlns="http://www.w3.org/2000/svg">
<path d="M10.35 13.86V6.15598L8.18997 11.016H5.14797L2.98797 6.15598V13.86H-3.12328e-05V1.38599H3.68997L6.71397 8.15399L9.77397 1.38599H13.338V13.86H10.35ZM16.1761 13.86V1.38599H24.8701V4.01398H19.5601V6.19198H23.8801V8.81999H19.5601V11.232H24.9061V13.86H16.1761ZM37.376 13.86V6.15598L35.216 11.016H32.174L30.014 6.15598V13.86H27.026V1.38599H30.716L33.74 8.15399L36.8 1.38599H40.364V13.86H37.376ZM43.2021 13.86V1.38599H51.8961V4.01398H46.5861V6.19198H50.9061V8.81999H46.5861V11.232H51.9321V13.86H43.2021Z" fill="#F8F8F8"/>
<path d="M53.872 13.86V4.58998H57.256V13.86H53.872ZM55.564 3.41998C54.988 3.41998 54.526 3.26398 54.178 2.95199C53.842 2.63998 53.674 2.22598 53.674 1.70999C53.674 1.19398 53.842 0.779985 54.178 0.467985C54.526 0.155985 54.988 -1.5378e-05 55.564 -1.5378e-05C56.14 -1.5378e-05 56.596 0.155985 56.932 0.467985C57.28 0.779985 57.454 1.19398 57.454 1.70999C57.454 2.22598 57.28 2.63998 56.932 2.95199C56.596 3.26398 56.14 3.41998 55.564 3.41998ZM59.9273 13.86V1.38599H64.8053C66.7253 1.38599 68.2133 1.92598 69.2693 3.00598C70.3253 4.08598 70.8533 5.62199 70.8533 7.61399C70.8533 8.92199 70.6193 10.05 70.1513 10.998C69.6833 11.934 69.0113 12.648 68.1353 13.14C67.2713 13.62 66.2333 13.86 65.0213 13.86H59.9273ZM63.4013 4.04999V11.196H64.5893C66.4013 11.196 67.3073 10.056 67.3073 7.77598V7.45199C67.3073 5.18399 66.4133 4.04999 64.6253 4.04999H63.4013Z" fill="#0FFF75"/>
</svg>
