<svg width="28" height="39" viewBox="0 0 28 39" fill="none" xmlns="http://www.w3.org/2000/svg">
<path fill-rule="evenodd" clip-rule="evenodd" d="M4.48 0.55714C4.06401 0.246738 3.56935 0.0577162 3.05146 0.011257C2.53356 -0.0352021 2.0129 0.0627326 1.5478 0.294094C1.08271 0.525455 0.691554 0.881103 0.418178 1.32118C0.144801 1.76125 -1.14158e-07 2.26837 -1.14274e-07 2.78571L-1.21768e-07 36.2143C-1.21884e-07 36.7316 0.144801 37.2387 0.418178 37.6788C0.691554 38.1189 1.08271 38.4745 1.5478 38.7059C2.0129 38.9373 2.53356 39.0352 3.05146 38.9887C3.56935 38.9423 4.06401 38.7533 4.48 38.4428L26.88 21.7286C27.2278 21.4691 27.51 21.1326 27.7044 20.7458C27.8988 20.359 28 19.9325 28 19.5C28 19.0675 27.8988 18.641 27.7044 18.2542C27.51 17.8674 27.2277 17.5309 26.88 17.2714L4.48 0.55714Z" fill="#374957"/>
</svg>
