<svg width="102" height="15" viewBox="0 0 102 15" fill="none" xmlns="http://www.w3.org/2000/svg">
<path d="M-7.15256e-07 13.86V1.38599H5.148C6.576 1.38599 7.71 1.75198 8.55 2.48398C9.39 3.20398 9.81 4.18798 9.81 5.43598C9.81 6.16799 9.642 6.82199 9.306 7.39798C8.982 7.97398 8.52 8.43599 7.92 8.78399L10.674 13.86H7.074L4.878 9.50399H3.294V13.86H-7.15256e-07ZM3.294 7.16399H4.77C5.298 7.16399 5.706 7.01999 5.994 6.73198C6.294 6.44398 6.444 6.02998 6.444 5.48998C6.444 4.39798 5.874 3.85198 4.734 3.85198H3.294V7.16399ZM12.1859 13.86V1.38599H20.8799V4.01398H15.5699V6.19198H19.8899V8.81999H15.5699V11.232H20.9159V13.86H12.1859ZM30.8235 13.86L30.1395 11.448H26.3235L25.6755 13.86H22.0035L26.3955 1.38599H30.2295L34.6215 13.86H30.8235ZM26.9715 8.99999H29.4915L28.2135 4.37399L26.9715 8.99999ZM45.0039 13.536C44.0199 13.908 42.8799 14.094 41.5839 14.094C39.5199 14.094 37.9479 13.548 36.8679 12.456C35.7999 11.364 35.2659 9.76799 35.2659 7.66799C35.2659 5.60398 35.8239 4.00198 36.9399 2.86199C38.0679 1.72198 39.6339 1.15198 41.6379 1.15198C42.7419 1.15198 43.8039 1.32598 44.8239 1.67398V4.30199C43.8159 4.08598 42.9519 3.97798 42.2319 3.97798C41.1279 3.97798 40.2939 4.27199 39.7299 4.85999C39.1659 5.43599 38.8839 6.29398 38.8839 7.43398V7.82999C38.8839 8.94599 39.1539 9.79799 39.6939 10.386C40.2459 10.974 41.0559 11.268 42.1239 11.268C42.9399 11.268 43.8999 11.148 45.0039 10.908V13.536Z" fill="#F8F8F8"/>
<path d="M49.4688 13.86V4.10398H45.8508V1.38599H56.5608V4.10398H52.9428V13.86H49.4688ZM58.0598 13.86V4.58998H61.4438V13.86H58.0598ZM59.7518 3.41998C59.1758 3.41998 58.7138 3.26398 58.3658 2.95199C58.0298 2.63998 57.8618 2.22598 57.8618 1.70999C57.8618 1.19398 58.0298 0.779985 58.3658 0.467985C58.7138 0.155985 59.1758 -1.5378e-05 59.7518 -1.5378e-05C60.3278 -1.5378e-05 60.7838 0.155985 61.1198 0.467985C61.4678 0.779985 61.6418 1.19398 61.6418 1.70999C61.6418 2.22598 61.4678 2.63998 61.1198 2.95199C60.7838 3.26398 60.3278 3.41998 59.7518 3.41998ZM70.0372 14.166C68.7292 14.166 67.6012 13.896 66.6532 13.356C65.7052 12.804 64.9852 12.036 64.4932 11.052C64.0012 10.068 63.7552 8.91599 63.7552 7.59598C63.7552 6.23998 64.0132 5.07598 64.5292 4.10398C65.0452 3.11998 65.7712 2.36998 66.7072 1.85398C67.6552 1.33798 68.7652 1.07998 70.0372 1.07998C71.3452 1.07998 72.4732 1.34998 73.4212 1.88998C74.3692 2.42999 75.0892 3.19199 75.5812 4.17598C76.0852 5.15998 76.3372 6.31798 76.3372 7.64998C76.3372 9.00599 76.0792 10.176 75.5632 11.16C75.0472 12.144 74.3152 12.894 73.3672 13.41C72.4192 13.914 71.3092 14.166 70.0372 14.166ZM70.0372 11.412C70.9492 11.412 71.6332 11.094 72.0892 10.458C72.5572 9.82199 72.7912 8.88599 72.7912 7.64998C72.7912 6.38998 72.5572 5.44199 72.0892 4.80598C71.6212 4.15798 70.9372 3.83398 70.0372 3.83398C69.1372 3.83398 68.4532 4.15198 67.9852 4.78799C67.5292 5.42398 67.3012 6.35998 67.3012 7.59598C67.3012 8.84399 67.5292 9.79199 67.9852 10.44C68.4532 11.088 69.1372 11.412 70.0372 11.412ZM81.8027 6.04799V13.86H78.8147V1.38599H82.4147L86.7887 9.26998V1.38599H89.7767V13.86H86.1767L81.8027 6.04799ZM95.2637 8.81999C94.1237 8.42399 93.3017 7.92599 92.7977 7.32599C92.2937 6.72599 92.0417 5.93999 92.0417 4.96799C92.0417 4.17599 92.2577 3.48599 92.6897 2.89798C93.1217 2.30998 93.7097 1.85998 94.4537 1.54799C95.2097 1.23598 96.0737 1.07998 97.0457 1.07998C98.3057 1.07998 99.4997 1.29598 100.628 1.72798V4.24798C99.4877 3.92398 98.3897 3.76198 97.3337 3.76198C96.0977 3.76198 95.4797 4.08598 95.4797 4.73398C95.4797 4.97398 95.5877 5.17799 95.8037 5.34598C96.0197 5.51398 96.4157 5.69398 96.9917 5.88599L98.0717 6.24599C99.3077 6.65398 100.184 7.14598 100.7 7.72198C101.228 8.28599 101.492 9.04199 101.492 9.98999C101.492 11.31 101.018 12.336 100.07 13.068C99.1337 13.8 97.8137 14.166 96.1097 14.166C95.3777 14.166 94.6697 14.1 93.9857 13.968C93.3017 13.848 92.7197 13.68 92.2397 13.464V10.908C92.8277 11.064 93.4757 11.196 94.1837 11.304C94.9037 11.4 95.5577 11.448 96.1457 11.448C96.7697 11.448 97.2317 11.37 97.5317 11.214C97.8317 11.046 97.9817 10.788 97.9817 10.44C97.9817 10.248 97.9397 10.092 97.8557 9.97199C97.7837 9.85199 97.6337 9.73799 97.4057 9.62999C97.1897 9.50999 96.8237 9.35999 96.3077 9.17998L95.2637 8.81999Z" fill="#0FFF75"/>
</svg>
