<svg width="15" height="16" viewBox="0 0 15 16" fill="none" xmlns="http://www.w3.org/2000/svg">
<path d="M8.57143 1C8.57143 0.446875 8.09263 0 7.5 0C6.90737 0 6.42857 0.446875 6.42857 1V7.58437L5.04241 6.29063C4.62388 5.9 3.9442 5.9 3.52567 6.29063C3.10714 6.68125 3.10714 7.31563 3.52567 7.70625L6.73996 10.7063C7.15848 11.0969 7.83817 11.0969 8.2567 10.7063L11.471 7.70625C11.8895 7.31563 11.8895 6.68125 11.471 6.29063C11.0525 5.9 10.3728 5.9 9.95424 6.29063L8.57143 7.58437V1ZM2.14286 10C0.960938 10 0 10.8969 0 12V13C0 14.1031 0.960938 15 2.14286 15H12.8571C14.0391 15 15 14.1031 15 13V12C15 10.8969 14.0391 10 12.8571 10H11.2868L9.39174 11.7688C8.3471 12.7438 6.64955 12.7438 5.60491 11.7688L3.71317 10H2.14286ZM12.3214 11.75C12.427 11.75 12.5314 11.7694 12.6289 11.8071C12.7264 11.8448 12.815 11.9 12.8896 11.9697C12.9643 12.0393 13.0234 12.122 13.0638 12.213C13.1042 12.304 13.125 12.4015 13.125 12.5C13.125 12.5985 13.1042 12.696 13.0638 12.787C13.0234 12.878 12.9643 12.9607 12.8896 13.0303C12.815 13.1 12.7264 13.1552 12.6289 13.1929C12.5314 13.2306 12.427 13.25 12.3214 13.25C12.2159 13.25 12.1114 13.2306 12.0139 13.1929C11.9164 13.1552 11.8278 13.1 11.7532 13.0303C11.6786 12.9607 11.6194 12.878 11.579 12.787C11.5386 12.696 11.5179 12.5985 11.5179 12.5C11.5179 12.4015 11.5386 12.304 11.579 12.213C11.6194 12.122 11.6786 12.0393 11.7532 11.9697C11.8278 11.9 11.9164 11.8448 12.0139 11.8071C12.1114 11.7694 12.2159 11.75 12.3214 11.75Z" fill="#0FFF75"/>
</svg>
