<svg width="10" height="9" viewBox="0 0 10 9" fill="none" xmlns="http://www.w3.org/2000/svg">
<g clip-path="url(#clip0_589_620)">
<path d="M4.99984 1.40625C3.86789 1.40625 2.93734 1.92656 2.2238 2.59629C1.55539 3.22559 1.09359 3.97266 0.857476 4.5C1.09359 5.02734 1.55539 5.77441 2.2238 6.40371C2.93734 7.07344 3.86789 7.59375 4.99984 7.59375C6.13178 7.59375 7.06234 7.07344 7.77588 6.40371C8.44428 5.77441 8.90609 5.02734 9.1422 4.5C8.90609 3.97266 8.44428 3.22559 7.77588 2.59629C7.06234 1.92656 6.13178 1.40625 4.99984 1.40625ZM1.65609 1.9793C2.4738 1.20937 3.59706 0.5625 4.99984 0.5625C6.40262 0.5625 7.52588 1.20937 8.34359 1.9793C9.15609 2.74395 9.69949 3.65625 9.95817 4.28379C10.0155 4.42266 10.0155 4.57734 9.95817 4.71621C9.69949 5.34375 9.15609 6.25781 8.34359 7.0207C7.52588 7.78887 6.40262 8.4375 4.99984 8.4375C3.59706 8.4375 2.4738 7.79063 1.65609 7.0207C0.843587 6.25605 0.300184 5.34375 0.0415039 4.71621C-0.0157878 4.57734 -0.0157878 4.42266 0.0415039 4.28379C0.300184 3.65625 0.843587 2.74219 1.65609 1.9793ZM4.99984 5.90625C5.7672 5.90625 6.38873 5.27695 6.38873 4.5C6.38873 3.97969 6.10921 3.52441 5.69428 3.28184C5.66998 4.33125 4.83317 5.17852 3.79671 5.20312C4.0363 5.62324 4.48595 5.90625 4.99984 5.90625ZM3.61789 4.35234C3.6613 4.35762 3.7047 4.35938 3.74984 4.35938C4.36268 4.35938 4.86095 3.85488 4.86095 3.23438C4.86095 3.18867 4.85748 3.14473 4.854 3.10078C4.2047 3.16934 3.68734 3.69316 3.61963 4.35059L3.61789 4.35234ZM4.40956 2.33086C4.59706 2.27813 4.79498 2.25176 4.9981 2.25176C5.15088 2.25176 5.30192 2.26758 5.44602 2.29746C5.45123 2.29922 5.4547 2.29922 5.45991 2.30098C6.46512 2.51543 7.22032 3.4207 7.22032 4.50176C7.22032 5.74453 6.22553 6.75176 4.9981 6.75176C3.92866 6.75176 3.0363 5.98711 2.82449 4.96934C2.79324 4.81816 2.77588 4.66172 2.77588 4.50176C2.77588 4.3084 2.80018 4.11855 2.84532 3.93926C2.8488 3.92695 2.85053 3.91641 2.854 3.90586C3.0606 3.14297 3.65435 2.5418 4.40782 2.33262L4.40956 2.33086Z" fill="#D9D9D9"/>
</g>
<defs>
<clipPath id="clip0_589_620">
<rect width="10" height="9" fill="white"/>
</clipPath>
</defs>
</svg>
